<svg xmlns="http://www.w3.org/2000/svg" xmlns:xlink="http://www.w3.org/1999/xlink" width="640" zoomAndPan="magnify" viewBox="0 0 480 479.999983" height="640" preserveAspectRatio="xMidYMid meet" version="1.0"><defs><g/></defs><rect x="-48" width="576" fill="#ffffff" y="-47.999998" height="575.99998" fill-opacity="1"/><rect x="-48" width="576" fill="#ffffff" y="-47.999998" height="575.99998" fill-opacity="1"/><path fill="#050a30" d="M 343.050781 48.414062 C 352.425781 39.039062 367.648438 39.039062 377.023438 48.414062 C 386.398438 57.789062 386.398438 73.011719 377.023438 82.386719 L 257.023438 202.386719 C 247.648438 211.761719 232.425781 211.761719 223.050781 202.386719 L 103.050781 82.386719 C 93.675781 73.011719 93.675781 57.789062 103.050781 48.414062 C 112.425781 39.039062 127.648438 39.039062 137.023438 48.414062 L 240 151.386719 Z M 144 209.363281 L 144 401.363281 C 144 414.636719 133.273438 425.363281 120 425.363281 C 106.726562 425.363281 96 414.636719 96 401.363281 L 96 209.363281 C 96 196.089844 106.726562 185.363281 120 185.363281 C 133.273438 185.363281 144 196.089844 144 209.363281 Z M 144 209.363281 " fill-opacity="1" fill-rule="nonzero"/><g fill="#050a30" fill-opacity="1"><g transform="translate(80.950315, 410.24676)"><g><path d="M 18.96875 0 L 18.96875 -210.765625 L 97.859375 -210.765625 C 127.566406 -210.765625 150.347656 -202.632812 166.203125 -186.375 C 182.054688 -170.113281 189.984375 -147.53125 189.984375 -118.625 L 189.984375 -92.140625 C 189.984375 -63.023438 182.054688 -40.390625 166.203125 -24.234375 C 150.347656 -8.078125 127.566406 0 97.859375 0 Z M 59.609375 -37.640625 L 96.34375 -37.640625 C 112.40625 -37.640625 125.253906 -42.253906 134.890625 -51.484375 C 144.523438 -60.722656 149.34375 -75.378906 149.34375 -95.453125 L 149.34375 -115.3125 C 149.34375 -135.382812 144.523438 -150.035156 134.890625 -159.265625 C 125.253906 -168.503906 112.40625 -173.125 96.34375 -173.125 L 59.609375 -173.125 Z M 59.609375 -37.640625 "/></g></g></g><g fill="#050a30" fill-opacity="1"><g transform="translate(256.862948, 410.24676)"><g><path d="M 18.96875 0 L 18.96875 -210.765625 L 161.390625 -210.765625 L 161.390625 -173.125 L 59.609375 -173.125 L 59.609375 -124.953125 L 151.75 -124.953125 L 151.75 -88.21875 L 59.609375 -88.21875 L 59.609375 -37.640625 L 162.59375 -37.640625 L 162.59375 0 Z M 18.96875 0 "/></g></g></g></svg>